<?xml version="1.0" encoding="utf-8"?>
<!-- Generator: Adobe Illustrator 26.0.2, SVG Export Plug-In . SVG Version: 6.00 Build 0)  -->
<svg version="1.1" id="Layer_1" xmlns="http://www.w3.org/2000/svg" xmlns:xlink="http://www.w3.org/1999/xlink" x="0px" y="0px"
	 viewBox="0 0 5184 5184" style="enable-background:new 0 0 5184 5184;" xml:space="preserve">
<g id="logo_design_1_">
	<path d="M5097.33,2253.31H4924V1110.69c100.66-35.89,173.33-131.19,173.33-244.03c0-143.37-116.63-260-260-260
		c-143.37,0-260,116.63-260,260c0,112.83,72.67,208.13,173.33,244.02v603.05c-236.15-583.09-697.33-1044.27-1280.36-1280.41h603.01
		c35.89,100.66,131.19,173.33,244.02,173.33c143.37,0,260-116.63,260-260s-116.63-260-260-260c-112.84,0-208.14,72.67-244.03,173.33
		H2930.69V86.67c0-47.9-38.76-86.67-86.67-86.67h-519.99c-47.91,0-86.67,38.77-86.67,86.67V260H1094.74
		C1058.85,159.33,963.55,86.67,850.72,86.67c-143.37,0-260,116.63-260,260s116.63,260,260,260c112.83,0,208.14-72.67,244.03-173.33
		h603.1C1114.79,669.5,653.56,1130.74,417.39,1713.79v-603.11c100.66-35.89,173.33-131.19,173.33-244.03
		c0-143.37-116.63-260-260-260c-143.37,0-260,116.63-260,260c0,112.83,72.67,208.13,173.33,244.02v1142.63H70.72
		c-47.91,0-86.67,38.77-86.67,86.67v519.99c0,47.9,38.76,86.67,86.67,86.67h173.33v1142.63
		c-100.66,35.89-173.33,131.19-173.33,244.02c0,143.37,116.63,260,260,260c143.37,0,260-116.63,260-260
		c0-112.83-72.67-208.14-173.33-244.02v-603.11c236.17,583.05,697.41,1044.29,1280.46,1280.46h-603.1
		c-35.89-100.66-131.19-173.33-244.03-173.33c-143.37,0-260,116.63-260,260s116.63,260,260,260c112.83,0,208.14-72.67,244.03-173.33
		h1142.62v173.33c0,47.9,38.76,86.67,86.67,86.67h519.99c47.9,0,86.67-38.76,86.67-86.67v-173.33h1142.63
		c35.89,100.66,131.19,173.33,244.02,173.33c143.37,0,260-116.63,260-260s-116.63-260-260-260c-112.84,0-208.14,72.67-244.03,173.33
		h-603.05c583.09-236.15,1044.27-697.33,1280.41-1280.36v603c-100.66,35.89-173.33,131.19-173.33,244.02
		c0,143.37,116.62,260,260,260c143.37,0,260-116.63,260-260c0-112.83-72.67-208.14-173.33-244.02V2946.63h173.33
		c47.9,0,86.67-38.76,86.67-86.67v-519.99C5184,2292.07,5145.24,2253.31,5097.33,2253.31z M4837.34,779.99
		c47.82,0,86.67,38.85,86.67,86.67s-38.85,86.67-86.67,86.67c-47.82,0-86.67-38.85-86.67-86.67S4789.52,779.99,4837.34,779.99z
		 M4317.34,260c47.82,0,86.67,38.85,86.67,86.67s-38.85,86.67-86.67,86.67c-47.82,0-86.67-38.85-86.67-86.67
		S4269.52,260,4317.34,260z M2410.7,173.33h346.66v346.66H2410.7V173.33z M850.72,433.33c-47.82,0-86.67-38.85-86.67-86.67
		S802.9,260,850.72,260c47.82,0,86.67,38.85,86.67,86.67S898.53,433.33,850.72,433.33z M330.72,779.99
		c47.82,0,86.67,38.85,86.67,86.67s-38.85,86.67-86.67,86.67c-47.82,0-86.67-38.85-86.67-86.67S282.9,779.99,330.72,779.99z
		 M157.39,2426.64h346.66v346.66H157.39V2426.64z M330.72,4419.95c-47.82,0-86.67-38.85-86.67-86.67s38.85-86.67,86.67-86.67
		c47.82,0,86.67,38.85,86.67,86.67S378.54,4419.95,330.72,4419.95z M850.72,4939.94c-47.82,0-86.67-38.85-86.67-86.67
		s38.85-86.67,86.67-86.67c47.82,0,86.67,38.85,86.67,86.67S898.53,4939.94,850.72,4939.94z M2757.36,5026.61H2410.7v-346.66h346.66
		V5026.61z M4317.34,4766.61c47.82,0,86.67,38.85,86.67,86.67s-38.85,86.67-86.67,86.67c-47.82,0-86.67-38.85-86.67-86.67
		S4269.52,4766.61,4317.34,4766.61z M2930.69,4736.98v-143.7c0-47.9-38.76-86.67-86.67-86.67h-519.99
		c-47.91,0-86.67,38.77-86.67,86.67v143.84c-925.33-148.1-1642.39-865.17-1790.49-1790.49h143.84c47.9,0,86.67-38.76,86.67-86.67
		v-519.99c0-47.9-38.76-86.67-86.67-86.67H446.87c148.1-925.33,865.17-1642.39,1790.49-1790.49v143.84
		c0,47.9,38.76,86.67,86.67,86.67h519.99c47.9,0,86.67-38.76,86.67-86.67v-143.7c911.4,147.89,1642.43,878.88,1790.34,1790.35
		h-143.69c-47.91,0-86.67,38.77-86.67,86.67v519.99c0,47.9,38.76,86.67,86.67,86.67h143.7
		C4573.15,3858.03,3842.16,4589.06,2930.69,4736.98z M4837.34,4419.95c-47.82,0-86.67-38.85-86.67-86.67s38.85-86.67,86.67-86.67
		c47.82,0,86.67,38.85,86.67,86.67S4885.15,4419.95,4837.34,4419.95z M5010.67,2773.3h-346.66v-346.66h346.66V2773.3z"/>
	<rect x="1630.71" y="2773.3" width="173.33" height="173.33"/>
	<rect x="3364.02" y="2773.3" width="173.33" height="173.33"/>
	<rect x="1977.37" y="3033.3" width="173.33" height="173.33"/>
	<rect x="3017.36" y="3033.3" width="173.33" height="173.33"/>
	<rect x="2497.36" y="1733.31" width="173.33" height="173.33"/>
	<rect x="2150.7" y="1733.31" width="173.33" height="173.33"/>
	<rect x="2844.03" y="1733.31" width="173.33" height="173.33"/>
	<path d="M3964.47,1789.63c-1.63-4.33-3.04-8.75-5.34-12.75c-1.64-2.87-3.96-5.25-5.93-7.91c-2.47-3.35-4.67-6.86-7.6-9.83
		c-2.39-2.42-5.36-4.24-8.05-6.38c-2.98-2.38-5.62-5.1-8.94-7.09L2628.63,965.68c-27.42-16.42-61.78-16.42-89.2,0l-1299.99,779.99
		c-3.29,1.98-5.92,4.68-8.88,7.05c-2.71,2.16-5.69,3.99-8.11,6.43c-2.9,2.94-5.07,6.41-7.51,9.71c-1.99,2.7-4.35,5.12-6.01,8.03
		c-2.24,3.91-3.61,8.22-5.21,12.44c-1.05,2.76-2.56,5.3-3.34,8.17c-1.95,7.24-3,14.79-3,22.49v1559.98
		c0,30.47,15.99,58.65,42.06,74.31l1299.99,779.99c0.29,0.18,0.64,0.23,0.94,0.4c0.34,0.2,0.58,0.5,0.92,0.7
		c4.53,2.56,9.39,4.08,14.2,5.76c2.06,0.72,3.96,1.89,6.05,2.45c7.37,1.98,14.92,3.04,22.49,3.04c7.57,0,15.12-1.06,22.49-3.04
		c2.09-0.56,3.99-1.73,6.05-2.45c4.81-1.69,9.67-3.2,14.2-5.76c0.35-0.2,0.58-0.5,0.92-0.7c0.3-0.17,0.65-0.22,0.94-0.4
		l1299.99-779.99c26.07-15.66,42.06-43.84,42.06-74.31V1819.98c0-7.7-1.05-15.26-3-22.51
		C3966.94,1794.72,3965.48,1792.29,3964.47,1789.63z M2584.03,1141.04l1131.52,678.94L2584.03,2498.9l-1131.52-678.92
		L2584.03,1141.04z M1370.71,1973.08l1126.65,675.98v1357.79l-1126.65-675.98V1973.08z M3797.35,3330.87L2670.7,4006.85V2649.06
		l1126.65-675.98V3330.87z"/>
</g>
</svg>
